<svg width="40" height="39" viewBox="0 0 40 39" fill="none" xmlns="http://www.w3.org/2000/svg">
<path fill-rule="evenodd" clip-rule="evenodd" d="M39.2 5.0002V24.2002C39.2 25.4732 38.6943 26.6941 37.7941 27.5943C36.8939 28.4945 35.673 29.0002 34.4 29.0002H22.4L10.4 38.6002V29.0002H5.6C4.32696 29.0002 3.10606 28.4945 2.20589 27.5943C1.30572 26.6941 0.800003 25.4732 0.800003 24.2002V5.0002C0.800003 3.72716 1.30572 2.50626 2.20589 1.60608C3.10606 0.705908 4.32696 0.200195 5.6 0.200195H34.4C35.673 0.200195 36.8939 0.705908 37.7941 1.60608C38.6943 2.50626 39.2 3.72716 39.2 5.0002ZM12.8 12.2002H8V17.0002H12.8V12.2002ZM17.6 12.2002H22.4V17.0002H17.6V12.2002ZM32 12.2002H27.2V17.0002H32V12.2002Z" fill="#3FE3ED"/>
</svg>
