<svg width="26" height="26" viewBox="0 0 26 26" fill="none" xmlns="http://www.w3.org/2000/svg">
<path fill-rule="evenodd" clip-rule="evenodd" d="M13 25.7999C16.3948 25.7999 19.6505 24.4514 22.051 22.0509C24.4514 19.6504 25.8 16.3947 25.8 12.9999C25.8 9.60518 24.4514 6.34945 22.051 3.94898C19.6505 1.54852 16.3948 0.199951 13 0.199951C9.60523 0.199951 6.3495 1.54852 3.94903 3.94898C1.54857 6.34945 0.2 9.60518 0.2 12.9999C0.2 16.3947 1.54857 19.6504 3.94903 22.0509C6.3495 24.4514 9.60523 25.7999 13 25.7999ZM14.6 6.59995C14.6 6.1756 14.4314 5.76864 14.1314 5.46858C13.8313 5.16852 13.4243 4.99995 13 4.99995C12.5757 4.99995 12.1687 5.16852 11.8686 5.46858C11.5686 5.76864 11.4 6.1756 11.4 6.59995V12.9999C11.4001 13.4243 11.5687 13.8312 11.8688 14.1311L16.3936 18.6575C16.5423 18.8062 16.7187 18.9241 16.913 19.0046C17.1072 19.085 17.3154 19.1264 17.5256 19.1264C17.7358 19.1264 17.944 19.085 18.1382 19.0046C18.3325 18.9241 18.5089 18.8062 18.6576 18.6575C18.8063 18.5089 18.9242 18.3324 19.0046 18.1382C19.0851 17.944 19.1265 17.7358 19.1265 17.5255C19.1265 17.3153 19.0851 17.1071 19.0046 16.9129C18.9242 16.7187 18.8063 16.5422 18.6576 16.3935L14.6 12.3376V6.59995Z" fill="#D2DDF4"/>
</svg>
