<svg width="32" height="30" viewBox="0 0 32 30" fill="none" xmlns="http://www.w3.org/2000/svg">
<path d="M9.33333 9.99984L14.3333 14.9998L9.33333 19.9998M17.6667 19.9998H22.6667M4.33333 28.3332H27.6667C28.5507 28.3332 29.3986 27.982 30.0237 27.3569C30.6488 26.7317 31 25.8839 31 24.9998V4.99984C31 4.11578 30.6488 3.26794 30.0237 2.64281C29.3986 2.01769 28.5507 1.6665 27.6667 1.6665H4.33333C3.44928 1.6665 2.60143 2.01769 1.97631 2.64281C1.35119 3.26794 1 4.11578 1 4.99984V24.9998C1 25.8839 1.35119 26.7317 1.97631 27.3569C2.60143 27.982 3.44928 28.3332 4.33333 28.3332Z" stroke="#215BF0" stroke-width="2" stroke-linecap="round" stroke-linejoin="round"/>
</svg>
