<svg width="32" height="32" viewBox="0 0 32 32" fill="none" xmlns="http://www.w3.org/2000/svg">
<path d="M12.25 24.3333L11 29.3333L9.33333 31H22.6667L21 29.3333L19.75 24.3333H12.25ZM1 17.6667H31H1ZM4.33333 24.3333H27.6667C28.5507 24.3333 29.3986 23.9821 30.0237 23.357C30.6488 22.7319 31 21.8841 31 21V4.33333C31 3.44928 30.6488 2.60143 30.0237 1.97631C29.3986 1.35119 28.5507 1 27.6667 1H4.33333C3.44928 1 2.60143 1.35119 1.97631 1.97631C1.35119 2.60143 1 3.44928 1 4.33333V21C1 21.8841 1.35119 22.7319 1.97631 23.357C2.60143 23.9821 3.44928 24.3333 4.33333 24.3333Z" stroke="#215BF0" stroke-width="2" stroke-linecap="round" stroke-linejoin="round"/>
</svg>
