<svg width="24" height="24" viewBox="0 0 24 24" fill="none" xmlns="http://www.w3.org/2000/svg">
<path opacity="0.1" fill-rule="evenodd" clip-rule="evenodd" d="M0 12C0 5.37258 5.37258 0 12 0C18.6274 0 24 5.37258 24 12C24 18.6274 18.6274 24 12 24C5.37258 24 0 18.6274 0 12Z" fill="#1045CE"/>
<path fill-rule="evenodd" clip-rule="evenodd" d="M19 12.042C19 8.17637 15.8656 5.04199 12 5.04199C8.13438 5.04199 5 8.17637 5 12.042C5 15.5357 7.55938 18.4317 10.9062 18.9573V14.0661H9.12844V12.042H10.9062V10.4998C10.9062 8.74574 11.9516 7.77605 13.5503 7.77605C14.3162 7.77605 15.1175 7.91293 15.1175 7.91293V9.63574H14.2344C13.3653 9.63574 13.0934 10.1751 13.0934 10.7295V12.042H15.0347L14.7247 14.0661H13.0938V18.9579C16.4406 18.4326 19 15.5367 19 12.042Z" fill="#1045CE"/>
</svg>
