<svg width="42" height="52" viewBox="0 0 42 52" fill="none" xmlns="http://www.w3.org/2000/svg">
<path d="M13 26H29H13ZM13 36.6667H29H13ZM34.3333 50H7.66668C6.25219 50 4.89563 49.4381 3.89544 48.4379C2.89525 47.4377 2.33334 46.0812 2.33334 44.6667V7.33333C2.33334 5.91885 2.89525 4.56229 3.89544 3.5621C4.89563 2.5619 6.25219 2 7.66668 2H22.5627C23.2699 2.00015 23.948 2.2812 24.448 2.78133L38.8853 17.2187C39.3855 17.7186 39.6665 18.3968 39.6667 19.104V44.6667C39.6667 46.0812 39.1048 47.4377 38.1046 48.4379C37.1044 49.4381 35.7478 50 34.3333 50Z" stroke="#215BF0" stroke-width="3" stroke-linecap="round" stroke-linejoin="round"/>
</svg>
