<svg width="26" height="26" viewBox="0 0 26 26" fill="none" xmlns="http://www.w3.org/2000/svg">
<path fill-rule="evenodd" clip-rule="evenodd" d="M17.1376 4.33761C17.4328 4.03198 17.7859 3.7882 18.1763 3.62049C18.5667 3.45278 18.9866 3.3645 19.4115 3.36081C19.8364 3.35712 20.2578 3.43808 20.6511 3.59898C21.0443 3.75988 21.4016 3.99749 21.7021 4.29795C22.0025 4.5984 22.2401 4.95569 22.401 5.34896C22.5619 5.74223 22.6429 6.1636 22.6392 6.5885C22.6355 7.01339 22.5472 7.43329 22.3795 7.82371C22.2118 8.21412 21.968 8.56722 21.6624 8.86241L16.8624 13.6624C16.2623 14.2623 15.4485 14.5993 14.6 14.5993C13.7515 14.5993 12.9377 14.2623 12.3376 13.6624C12.0358 13.371 11.6317 13.2097 11.2122 13.2133C10.7926 13.217 10.3913 13.3853 10.0947 13.6819C9.79804 13.9786 9.62977 14.3799 9.62612 14.7994C9.62248 15.2189 9.78375 15.623 10.0752 15.9248C11.2754 17.1246 12.9029 17.7986 14.6 17.7986C16.2971 17.7986 17.9246 17.1246 19.1248 15.9248L23.9248 11.1248C25.0906 9.91776 25.7357 8.3011 25.7211 6.62304C25.7065 4.94498 25.0335 3.33979 23.8468 2.15317C22.6602 0.966561 21.055 0.29348 19.377 0.278898C17.6989 0.264316 16.0823 0.9094 14.8752 2.07521L12.4752 4.47521C12.3224 4.62281 12.2005 4.79936 12.1166 4.99456C12.0328 5.18977 11.9886 5.39972 11.9868 5.61217C11.985 5.82462 12.0254 6.0353 12.1059 6.23194C12.1863 6.42857 12.3051 6.60722 12.4554 6.75744C12.6056 6.90767 12.7842 7.02648 12.9809 7.10693C13.1775 7.18738 13.3882 7.22786 13.6006 7.22601C13.8131 7.22417 14.023 7.18003 14.2182 7.09617C14.4135 7.01232 14.59 6.89043 14.7376 6.73761L17.1376 4.33761ZM9.1376 12.3376C9.73769 11.7377 10.5515 11.4007 11.4 11.4007C12.2485 11.4007 13.0623 11.7377 13.6624 12.3376C13.81 12.4904 13.9865 12.6123 14.1818 12.6962C14.377 12.78 14.5869 12.8242 14.7994 12.826C15.0118 12.8279 15.2225 12.7874 15.4191 12.7069C15.6158 12.6265 15.7944 12.5077 15.9446 12.3574C16.0949 12.2072 16.2137 12.0286 16.2941 11.8319C16.3746 11.6353 16.415 11.4246 16.4132 11.2122C16.4114 10.9997 16.3672 10.7898 16.2834 10.5946C16.1995 10.3994 16.0776 10.2228 15.9248 10.0752C14.7246 8.8754 13.0971 8.20138 11.4 8.20138C9.70295 8.20138 8.07538 8.8754 6.8752 10.0752L2.0752 14.8752C1.46394 15.4656 0.976369 16.1718 0.640952 16.9526C0.305534 17.7334 0.128982 18.5733 0.121598 19.423C0.114213 20.2728 0.276144 21.1156 0.597942 21.9021C0.919739 22.6887 1.39496 23.4032 1.99587 24.0041C2.59679 24.6051 3.31136 25.0803 4.09789 25.4021C4.88443 25.7239 5.72718 25.8858 6.57697 25.8784C7.42676 25.871 8.26656 25.6945 9.04739 25.3591C9.82821 25.0236 10.5344 24.5361 11.1248 23.9248L13.5248 21.5248C13.6776 21.3772 13.7995 21.2007 13.8834 21.0055C13.9672 20.8103 14.0114 20.6003 14.0132 20.3879C14.015 20.1754 13.9746 19.9647 13.8941 19.7681C13.8137 19.5715 13.6949 19.3928 13.5446 19.2426C13.3944 19.0924 13.2158 18.9735 13.0191 18.8931C12.8225 18.8126 12.6118 18.7722 12.3994 18.774C12.1869 18.7759 11.977 18.82 11.7818 18.9039C11.5865 18.9877 11.41 19.1096 11.2624 19.2624L8.8624 21.6624C8.56721 21.968 8.21411 22.2118 7.8237 22.3795C7.43328 22.5472 7.01338 22.6355 6.58848 22.6392C6.16359 22.6429 5.74222 22.5619 5.34895 22.401C4.95568 22.2401 4.59839 22.0025 4.29794 21.7021C3.99748 21.4016 3.75987 21.0443 3.59897 20.6511C3.43807 20.2578 3.35711 19.8364 3.3608 19.4115C3.36449 18.9866 3.45277 18.5667 3.62048 18.1763C3.78819 17.7859 4.03197 17.4328 4.3376 17.1376L9.1376 12.3376Z" fill="#D2DDF4"/>
</svg>
