<svg width="40" height="24" viewBox="0 0 40 24" fill="none" xmlns="http://www.w3.org/2000/svg">
<path d="M29.7586 7.54681L33.0766 1.79915C33.1655 1.64486 33.1898 1.46165 33.1441 1.28952C33.0985 1.11738 32.9865 0.970304 32.8328 0.880402C32.7569 0.835826 32.6728 0.806762 32.5856 0.794893C32.4983 0.783023 32.4096 0.788585 32.3245 0.811256C32.2394 0.833928 32.1597 0.873258 32.0899 0.926968C32.0201 0.980677 31.9617 1.0477 31.918 1.12415L28.5586 6.94603C25.9937 5.77415 23.107 5.12181 20.0023 5.12181C16.8977 5.12181 14.0109 5.77493 11.4461 6.94603L8.08672 1.12415C7.99721 0.969995 7.85013 0.85771 7.67783 0.811998C7.50553 0.766286 7.32213 0.790891 7.16797 0.880402C7.01381 0.969913 6.90153 1.117 6.85581 1.28929C6.8101 1.46159 6.83471 1.645 6.92422 1.79915L10.2344 7.54681C4.51562 10.6437 0.639844 16.4351 0 23.2148H40C39.3602 16.4351 35.4844 10.6437 29.7586 7.54681ZM10.8164 17.5976C10.4848 17.5976 10.1607 17.4993 9.88496 17.315C9.60925 17.1308 9.39436 16.869 9.26746 16.5626C9.14057 16.2563 9.10737 15.9192 9.17206 15.5939C9.23675 15.2687 9.39643 14.97 9.6309 14.7355C9.86537 14.501 10.1641 14.3414 10.4893 14.2767C10.8145 14.212 11.1516 14.2452 11.458 14.3721C11.7644 14.499 12.0262 14.7139 12.2104 14.9896C12.3946 15.2653 12.493 15.5894 12.493 15.921C12.4928 16.3656 12.3161 16.7919 12.0017 17.1063C11.6873 17.4207 11.261 17.5974 10.8164 17.5976ZM29.1758 17.5976C28.8445 17.5962 28.521 17.4967 28.2463 17.3116C27.9715 17.1266 27.7577 16.8642 27.6319 16.5578C27.506 16.2513 27.4738 15.9144 27.5393 15.5897C27.6048 15.2649 27.765 14.9668 27.9998 14.7331C28.2345 14.4993 28.5333 14.3403 28.8583 14.2762C29.1833 14.2121 29.5201 14.2457 29.826 14.3728C30.132 14.4999 30.3934 14.7148 30.5773 14.9903C30.7612 15.2659 30.8594 15.5897 30.8594 15.921C30.8593 16.1415 30.8157 16.3598 30.7312 16.5634C30.6466 16.767 30.5228 16.952 30.3667 17.1077C30.2106 17.2634 30.0254 17.3868 29.8216 17.4709C29.6178 17.5549 29.3994 17.598 29.1789 17.5976H29.1758Z" fill="#3FE3ED"/>
</svg>
