<svg width="24" height="24" viewBox="0 0 24 24" fill="none" xmlns="http://www.w3.org/2000/svg">
<path opacity="0.1" fill-rule="evenodd" clip-rule="evenodd" d="M0 12C0 5.37258 5.37258 0 12 0C18.6274 0 24 5.37258 24 12C24 18.6274 18.6274 24 12 24C5.37258 24 0 18.6274 0 12Z" fill="#1045CE"/>
<path d="M17.8803 5H6.19625C5.55781 5 5 5.45937 5 6.09031V17.8003C5 18.4347 5.55781 19 6.19625 19H17.8769C18.5188 19 19 18.4309 19 17.8003V6.09031C19.0037 5.45937 18.5188 5 17.8803 5ZM9.33969 16.6697H7.33406V10.4338H9.33969V16.6697ZM8.40625 9.48562H8.39187C7.75 9.48562 7.33437 9.00781 7.33437 8.40969C7.33437 7.80063 7.76094 7.33406 8.41719 7.33406C9.07344 7.33406 9.475 7.79719 9.48938 8.40969C9.48906 9.00781 9.07344 9.48562 8.40625 9.48562ZM16.6697 16.6697H14.6641V13.26C14.6641 12.4431 14.3722 11.885 13.6466 11.885C13.0922 11.885 12.7641 12.26 12.6181 12.6253C12.5634 12.7566 12.5487 12.9353 12.5487 13.1178V16.6697H10.5431V10.4338H12.5487V11.3016C12.8406 10.8859 13.2966 10.2878 14.3575 10.2878C15.6741 10.2878 16.67 11.1556 16.67 13.0266L16.6697 16.6697Z" fill="#1045CE"/>
</svg>
