<svg width="46" height="52" viewBox="0 0 46 52" fill="none" xmlns="http://www.w3.org/2000/svg">
<path d="M23 34V39.3333V34ZM6.99999 50H39C40.4145 50 41.771 49.4381 42.7712 48.4379C43.7714 47.4377 44.3333 46.0812 44.3333 44.6667V28.6667C44.3333 27.2522 43.7714 25.8956 42.7712 24.8954C41.771 23.8952 40.4145 23.3333 39 23.3333H6.99999C5.5855 23.3333 4.22895 23.8952 3.22875 24.8954C2.22856 25.8956 1.66666 27.2522 1.66666 28.6667V44.6667C1.66666 46.0812 2.22856 47.4377 3.22875 48.4379C4.22895 49.4381 5.5855 50 6.99999 50ZM33.6667 23.3333V12.6667C33.6667 9.83769 32.5428 7.12458 30.5425 5.12419C28.5421 3.12381 25.829 2 23 2C20.171 2 17.4579 3.12381 15.4575 5.12419C13.4571 7.12458 12.3333 9.83769 12.3333 12.6667V23.3333H33.6667Z" stroke="#215BF0" stroke-width="3" stroke-linecap="round" stroke-linejoin="round"/>
</svg>
