<svg width="36" height="52" viewBox="0 0 36 52" fill="none" xmlns="http://www.w3.org/2000/svg">
<path d="M18 42H18.0267H18ZM7.33333 50H28.6667C30.0812 50 31.4377 49.4381 32.4379 48.4379C33.4381 47.4377 34 46.0812 34 44.6667V7.33333C34 5.91885 33.4381 4.56229 32.4379 3.5621C31.4377 2.5619 30.0812 2 28.6667 2H7.33333C5.91885 2 4.56229 2.5619 3.5621 3.5621C2.5619 4.56229 2 5.91885 2 7.33333V44.6667C2 46.0812 2.5619 47.4377 3.5621 48.4379C4.56229 49.4381 5.91885 50 7.33333 50Z" stroke="#215BF0" stroke-width="3" stroke-linecap="round" stroke-linejoin="round"/>
</svg>
