<svg width="46" height="46" viewBox="0 0 46 46" fill="none" xmlns="http://www.w3.org/2000/svg">
<path d="M1.66666 33.6667L13.896 21.4374C14.8961 20.4376 16.2525 19.8759 17.6667 19.8759C19.0809 19.8759 20.4372 20.4376 21.4373 21.4374L33.6667 33.6667H1.66666ZM28.3333 28.3334L32.5627 24.1041C33.5628 23.1042 34.9191 22.5426 36.3333 22.5426C37.7475 22.5426 39.1038 23.1042 40.104 24.1041L44.3333 28.3334H28.3333ZM28.3333 12.3334H28.36H28.3333ZM7 44.3334H39C40.4145 44.3334 41.771 43.7715 42.7712 42.7713C43.7714 41.7711 44.3333 40.4146 44.3333 39.0001V7.00008C44.3333 5.58559 43.7714 4.22904 42.7712 3.22884C41.771 2.22865 40.4145 1.66675 39 1.66675H7C5.58551 1.66675 4.22895 2.22865 3.22876 3.22884C2.22857 4.22904 1.66666 5.58559 1.66666 7.00008V39.0001C1.66666 40.4146 2.22857 41.7711 3.22876 42.7713C4.22895 43.7715 5.58551 44.3334 7 44.3334Z" stroke="#215BF0" stroke-width="3" stroke-linecap="round" stroke-linejoin="round"/>
</svg>
