<svg width="26" height="32" viewBox="0 0 26 32" fill="none" xmlns="http://www.w3.org/2000/svg">
<path d="M8 24.3333V21V24.3333ZM13 24.3333V17.6667V24.3333ZM18 24.3333V14.3333V24.3333ZM21.3333 31H4.66666C3.78261 31 2.93476 30.6488 2.30964 30.0237C1.68452 29.3986 1.33333 28.5507 1.33333 27.6667V4.33333C1.33333 3.44928 1.68452 2.60143 2.30964 1.97631C2.93476 1.35119 3.78261 1 4.66666 1H13.9767C14.4187 1.00009 14.8425 1.17575 15.155 1.48833L24.1783 10.5117C24.4909 10.8242 24.6666 11.248 24.6667 11.69V27.6667C24.6667 28.5507 24.3155 29.3986 23.6904 30.0237C23.0652 30.6488 22.2174 31 21.3333 31Z" stroke="#215BF0" stroke-width="2" stroke-linecap="round" stroke-linejoin="round"/>
</svg>
